# xmcd
#
# Track frame offsets: 
#        150
#        14095
#        30522
#        38527
#        51885
#        65355
#        76887
#        86535
#        105867
#        117650
#        128335
#        139802
#        149195
#        162097
#        174400
#        187497
#        197905
#        210262
#        222570
#        236642
#        247762
#        257330
#
# Disc length: 3568 seconds
#
# Revision: 3
# Processed by: cddbd v1.5.2PL0 Copyright (c) Steve Scherf et al.
# Submitted via: ExactAudioCopy v1.3
#
DISCID=330dee16
DTITLE=Memphis Slim - Blues pioneers, Disc 10
DYEAR=2007
DGENRE=Blues
TTITLE0=Messin' around
TTITLE1=Cold blooded woman
TTITLE2=I'd take her to Chicago
TTITLE3=Harlem bound
TTITLE4=What is the move-rack
TTITLE5=Memphis Slim USA
TTITLE6=Big Bertha
TTITLE7=Red haired boogie
TTITLE8=Let the good times roll Creole
TTITLE9=Pigale love
TTITLE10=New key to the highway
TTITLE11=John Henry
TTITLE12=One man's mad
TTITLE13=It's been too long
TTITLE14=Born with the blues
TTITLE15=The comeback
TTITLE16=Four walls
TTITLE17=Sassy Mae
TTITLE18=Slim's blues
TTITLE19=Lonesome
TTITLE20=Rockin' the blues
TTITLE21=I'm lost without you
EXTD=
EXTT0=
EXTT1=
EXTT2=
EXTT3=
EXTT4=
EXTT5=
EXTT6=
EXTT7=
EXTT8=
EXTT9=
EXTT10=
EXTT11=
EXTT12=
EXTT13=
EXTT14=
EXTT15=
EXTT16=
EXTT17=
EXTT18=
EXTT19=
EXTT20=
EXTT21=
PLAYORDER=
